<svg width="44" height="45" viewBox="0 0 44 45" fill="none" xmlns="http://www.w3.org/2000/svg">
<g clip-path="url(#clip0_419_9973)">
<path d="M17.8028 32.125C18.2727 32.125 18.6535 31.7332 18.6535 31.25C18.6535 30.7668 18.2727 30.375 17.8028 30.375C17.333 30.375 16.9521 30.7668 16.9521 31.25C16.9521 31.7332 17.333 32.125 17.8028 32.125Z" stroke="black" stroke-width="2.04167" stroke-linecap="round" stroke-linejoin="round"/>
<path d="M29.712 32.125C30.1818 32.125 30.5627 31.7332 30.5627 31.25C30.5627 30.7668 30.1818 30.375 29.712 30.375C29.2422 30.375 28.8613 30.7668 28.8613 31.25C28.8613 31.7332 29.2422 32.125 29.712 32.125Z" stroke="black" stroke-width="2.04167" stroke-linecap="round" stroke-linejoin="round"/>
<path d="M10.9961 12.875H14.3989L16.951 27.75H30.5621" stroke="black" stroke-width="2.04167" stroke-linecap="round" stroke-linejoin="round"/>
<path d="M16.9514 24.25H30.2137C30.3121 24.2501 30.4074 24.2151 30.4835 24.151C30.5596 24.0868 30.6118 23.9976 30.6311 23.8984L32.1623 16.0234C32.1747 15.9599 32.1732 15.8943 32.1579 15.8315C32.1427 15.7687 32.1141 15.7101 32.0741 15.66C32.0342 15.61 31.984 15.5696 31.927 15.542C31.8701 15.5143 31.8079 15.5 31.745 15.5H15.25" stroke="black" stroke-width="2.04167" stroke-linecap="round" stroke-linejoin="round"/>
</g>
<defs>
<clipPath id="clip0_419_9973">
<rect width="24" height="28" fill="white" transform="translate(10 8.5)"/>
</clipPath>
</defs>
</svg>
