<svg width="33" height="32" viewBox="0 0 33 32" fill="none" xmlns="http://www.w3.org/2000/svg">
<path fill-rule="evenodd" clip-rule="evenodd" d="M1.70695 0.585862C2.09748 0.195338 2.73064 0.195338 3.12117 0.585862L16.207 13.6717L29.2929 0.585862C29.6834 0.195338 30.3166 0.195338 30.7071 0.585862C31.0976 0.976386 31.0976 1.60955 30.7071 2.00008L17.6213 15.0859L32.1212 29.5859C32.5117 29.9764 32.5117 30.6096 32.1212 31.0001C31.7307 31.3906 31.0975 31.3906 30.707 31.0001L16.207 16.5002L1.70711 31.0001C1.31658 31.3906 0.683418 31.3906 0.292894 31.0001C-0.0976309 30.6096 -0.0976312 29.9764 0.292893 29.5859L14.7928 15.0859L1.70695 2.00008C1.31643 1.60955 1.31643 0.976386 1.70695 0.585862Z" fill="black"/>
</svg>
