<svg width="24" height="24" viewBox="0 0 24 24" fill="none" xmlns="http://www.w3.org/2000/svg">
<path d="M17 3.33989C18.5202 4.21758 19.7826 5.47997 20.6603 7.00017C21.538 8.52038 22 10.2448 22 12.0002C22 13.7556 21.5379 15.48 20.6602 17.0002C19.7825 18.5204 18.5201 19.7828 16.9999 20.6605C15.4797 21.5381 13.7552 22.0002 11.9998 22.0001C10.2445 22.0001 8.52002 21.538 6.99984 20.6603C5.47965 19.7826 4.21729 18.5202 3.33963 17C2.46198 15.4797 1.99996 13.7553 2 11.9999L2.005 11.6759C2.061 9.94888 2.56355 8.26585 3.46364 6.79089C4.36373 5.31592 5.63065 4.09934 7.14089 3.25977C8.65113 2.42021 10.3531 1.98629 12.081 2.00033C13.8089 2.01437 15.5036 2.47589 17 3.33989ZM14.5 12.9999C14.1022 12.9999 13.7206 13.1579 13.4393 13.4392C13.158 13.7205 13 14.1021 13 14.4999C13 14.8977 13.158 15.2792 13.4393 15.5606C13.7206 15.8419 14.1022 15.9999 14.5 15.9999C14.8978 15.9999 15.2794 15.8419 15.5607 15.5606C15.842 15.2792 16 14.8977 16 14.4999C16 14.1021 15.842 13.7205 15.5607 13.4392C15.2794 13.1579 14.8978 12.9999 14.5 12.9999ZM15.707 8.29289C15.5195 8.10542 15.2652 8.00011 15 8.00011C14.7348 8.00011 14.4805 8.10542 14.293 8.29289L8.293 14.2929C8.11084 14.4815 8.01005 14.7341 8.01233 14.9963C8.0146 15.2585 8.11977 15.5093 8.30518 15.6947C8.49059 15.8801 8.7414 15.9853 9.0036 15.9876C9.2658 15.9898 9.5184 15.8891 9.707 15.7069L15.707 9.70689C15.8945 9.51936 15.9998 9.26506 15.9998 8.99989C15.9998 8.73473 15.8945 8.48042 15.707 8.29289ZM9.5 7.99989C9.10218 7.99989 8.72064 8.15793 8.43934 8.43923C8.15804 8.72054 8 9.10207 8 9.49989C8 9.89772 8.15804 10.2792 8.43934 10.5606C8.72064 10.8419 9.10218 10.9999 9.5 10.9999C9.89782 10.9999 10.2794 10.8419 10.5607 10.5606C10.842 10.2792 11 9.89772 11 9.49989C11 9.10207 10.842 8.72054 10.5607 8.43923C10.2794 8.15793 9.89782 7.99989 9.5 7.99989Z" fill="#2C3034"/>
</svg>
