<svg width="27" height="28" viewBox="0 0 27 28" fill="none" xmlns="http://www.w3.org/2000/svg">
<path d="M11 18.5H17M21 8.5V20.5C21 21.0304 20.7893 21.5391 20.4142 21.9142C20.0391 22.2893 19.5304 22.5 19 22.5H9C8.46957 22.5 7.96086 22.2893 7.58579 21.9142C7.21071 21.5391 7 21.0304 7 20.5V8.5C7 7.96957 7.21071 7.46086 7.58579 7.08579C7.96086 6.71071 8.46957 6.5 9 6.5H19C19.5304 6.5 20.0391 6.71071 20.4142 7.08579C20.7893 7.46086 21 7.96957 21 8.5Z" stroke="#2C3034" stroke-width="2" stroke-linecap="round" stroke-linejoin="round"/>
<path d="M5 10.5H8M5 14.5H8M5 18.5H8M12 13.5C12 14.0304 12.2107 14.5391 12.5858 14.9142C12.9609 15.2893 13.4696 15.5 14 15.5C14.5304 15.5 15.0391 15.2893 15.4142 14.9142C15.7893 14.5391 16 14.0304 16 13.5C16 12.9696 15.7893 12.4609 15.4142 12.0858C15.0391 11.7107 14.5304 11.5 14 11.5C13.4696 11.5 12.9609 11.7107 12.5858 12.0858C12.2107 12.4609 12 12.9696 12 13.5Z" stroke="#2C3034" stroke-width="2" stroke-linecap="round" stroke-linejoin="round"/>
</svg>
