<svg width="27" height="27" viewBox="0 0 27 27" fill="none" xmlns="http://www.w3.org/2000/svg">
<path fill-rule="evenodd" clip-rule="evenodd" d="M9 7C8.73478 7 8.48043 7.10536 8.29289 7.29289C8.10536 7.48043 8 7.73478 8 8V9C8.55228 9 9 9.44772 9 10C9 10.5523 8.55228 11 8 11V13C8.55228 13 9 13.4477 9 14C9 14.5523 8.55228 15 8 15V17C8.55228 17 9 17.4477 9 18C9 18.5523 8.55228 19 8 19V20C8 20.2652 8.10536 20.5196 8.29289 20.7071C8.48043 20.8946 8.73478 21 9 21H19C19.2652 21 19.5196 20.8946 19.7071 20.7071C19.8946 20.5196 20 20.2652 20 20V8C20 7.73478 19.8946 7.48043 19.7071 7.29289C19.5196 7.10536 19.2652 7 19 7H9ZM6 19V20C6 20.7956 6.31607 21.5587 6.87868 22.1213C7.44129 22.6839 8.20435 23 9 23H19C19.7957 23 20.5587 22.6839 21.1213 22.1213C21.6839 21.5587 22 20.7957 22 20V8C22 7.20435 21.6839 6.44129 21.1213 5.87868C20.5587 5.31607 19.7956 5 19 5H9C8.20435 5 7.44129 5.31607 6.87868 5.87868C6.31607 6.44129 6 7.20435 6 8V9H5C4.44772 9 4 9.44772 4 10C4 10.5523 4.44772 11 5 11H6V13H5C4.44772 13 4 13.4477 4 14C4 14.5523 4.44772 15 5 15H6V17H5C4.44772 17 4 17.4477 4 18C4 18.5523 4.44772 19 5 19H6ZM11.8787 10.8787C12.4413 10.3161 13.2043 10 14 10C14.7957 10 15.5587 10.3161 16.1213 10.8787C16.6839 11.4413 17 12.2043 17 13C17 13.7957 16.6839 14.5587 16.1213 15.1213C15.5587 15.6839 14.7957 16 14 16C13.2043 16 12.4413 15.6839 11.8787 15.1213C11.3161 14.5587 11 13.7957 11 13C11 12.2043 11.3161 11.4413 11.8787 10.8787ZM14 12C13.7348 12 13.4804 12.1054 13.2929 12.2929C13.1054 12.4804 13 12.7348 13 13C13 13.2652 13.1054 13.5196 13.2929 13.7071C13.4804 13.8946 13.7348 14 14 14C14.2652 14 14.5196 13.8946 14.7071 13.7071C14.8946 13.5196 15 13.2652 15 13C15 12.7348 14.8946 12.4804 14.7071 12.2929C14.5196 12.1054 14.2652 12 14 12ZM10 18C10 17.4477 10.4477 17 11 17H17C17.5523 17 18 17.4477 18 18C18 18.5523 17.5523 19 17 19H11C10.4477 19 10 18.5523 10 18Z" fill="#2C3034"/>
</svg>
