<svg width="14" height="14" viewBox="0 0 14 14" fill="none" xmlns="http://www.w3.org/2000/svg">
<g clip-path="url(#clip0_2760_11474)">
<path fill-rule="evenodd" clip-rule="evenodd" d="M0.999924 0.585862C1.39045 0.195338 2.02361 0.195338 2.41414 0.585862L7.41406 5.58579L11.9999 0.999924C12.3904 0.6094 13.0236 0.6094 13.4141 0.999924C13.8047 1.39045 13.8047 2.02361 13.4141 2.41414L8.82828 7L13.4141 11.5859C13.8047 11.9764 13.8047 12.6096 13.4141 13.0001C13.0236 13.3906 12.3904 13.3906 11.9999 13.0001L7.41406 8.41421L2.41414 13.4141C2.02361 13.8047 1.39045 13.8047 0.999926 13.4141C0.609401 13.0236 0.609401 12.3904 0.999926 11.9999L5.99985 7L0.999924 2.00008C0.6094 1.60955 0.6094 0.976386 0.999924 0.585862Z" fill="#1C5291"/>
</g>
<defs>
<clipPath id="clip0_2760_11474">
<rect width="14" height="14" fill="white"/>
</clipPath>
</defs>
</svg>
