<svg width="30" height="28" viewBox="0 0 30 28" fill="none" xmlns="http://www.w3.org/2000/svg">
<path d="M11.6063 19.0108H17.3071V12.3303H22.2596C22.1509 10.2507 21.3974 8.25656 20.1036 6.62482C18.8098 4.99308 17.04 3.80471 15.04 3.22476C13.04 2.64481 10.909 2.70206 8.94296 3.38856C6.97696 4.07506 5.27352 5.35673 4.06922 7.05558C2.86491 8.75444 2.21952 10.7862 2.22267 12.8686C2.22581 14.951 2.87735 16.9807 4.08678 18.6759C5.29621 20.3711 7.00351 21.6477 8.97158 22.3282C10.9397 23.0088 13.0708 23.0596 15.0691 22.4736L11.6063 19.0108ZM9.48189 12.858C9.48189 12.3075 9.64515 11.7693 9.95101 11.3116C10.2569 10.8538 10.6916 10.497 11.2002 10.2864C11.7089 10.0757 12.2685 10.0205 12.8085 10.128C13.3485 10.2354 13.8444 10.5005 14.2337 10.8898C14.623 11.279 14.8881 11.775 14.9955 12.315C15.1029 12.8549 15.0478 13.4146 14.8371 13.9233C14.6265 14.4319 14.2697 14.8666 13.8119 15.1725C13.3542 15.4783 12.816 15.6416 12.2655 15.6416C11.5272 15.6416 10.8192 15.3483 10.2972 14.8263C9.77516 14.3043 9.48189 13.5963 9.48189 12.858Z" fill="#1C5291"/>
<path d="M24.5451 20.6806H21.2048V14H18.978V20.6806H15.6377L20.0914 25.1343L24.5451 20.6806Z" fill="#1C5291"/>
</svg>
