<svg width="49" height="49" viewBox="0 0 49 49" fill="none" xmlns="http://www.w3.org/2000/svg">
<rect width="49" height="49" fill="white"/>
<path d="M16.375 35.875H19.625V32.625H16.375V35.875ZM16.375 29.375H19.625V22.875H16.375V29.375ZM22.875 35.875H26.125V29.375H22.875V35.875ZM22.875 26.125H26.125V22.875H22.875V26.125ZM29.375 35.875H32.625V32.625H29.375V35.875ZM29.375 29.375H32.625V22.875H29.375V29.375ZM11.5 40.75V18L21.25 8.25H37.5V40.75H11.5ZM14.75 37.5H34.25V11.5H22.6313L14.75 19.3813V37.5Z" fill="url(#paint0_linear_714_1773)"/>
<defs>
<linearGradient id="paint0_linear_714_1773" x1="11.5" y1="40.75" x2="39.3404" y2="39.0885" gradientUnits="userSpaceOnUse">
<stop stop-color="#0093D0"/>
<stop offset="0.475" stop-color="#00A0E3"/>
<stop offset="1" stop-color="#0093D0"/>
</linearGradient>
</defs>
</svg>
