<svg width="49" height="49" viewBox="0 0 49 49" fill="none" xmlns="http://www.w3.org/2000/svg">
<rect width="49" height="49" fill="white"/>
<path d="M15.375 31.875H18.625V28.625H15.375V31.875ZM15.375 25.375H18.625V18.875H15.375V25.375ZM21.875 31.875H25.125V25.375H21.875V31.875ZM21.875 22.125H25.125V18.875H21.875V22.125ZM28.375 31.875H31.625V28.625H28.375V31.875ZM28.375 25.375H31.625V18.875H28.375V25.375ZM10.5 36.75V14L20.25 4.25H36.5V36.75H10.5ZM13.75 33.5H33.25V7.5H21.6313L13.75 15.3813V33.5Z" fill="url(#paint0_linear_714_1770)"/>
<circle cx="36" cy="39" r="8" fill="#0DA71F"/>
<path fill-rule="evenodd" clip-rule="evenodd" d="M40.4526 35.6317C40.5723 35.7297 40.6482 35.8712 40.6637 36.0251C40.6791 36.179 40.6328 36.3327 40.5348 36.4525L35.2848 42.8692C35.2332 42.9322 35.169 42.9838 35.0962 43.0205C35.0235 43.0573 34.9439 43.0783 34.8625 43.0824C34.7811 43.0865 34.6997 43.0734 34.6237 43.0441C34.5476 43.0148 34.4786 42.9699 34.4209 42.9123L31.5043 39.9957C31.4485 39.9418 31.4041 39.8775 31.3735 39.8063C31.343 39.7351 31.3269 39.6586 31.3262 39.5811C31.3255 39.5037 31.3403 39.4269 31.3696 39.3552C31.3989 39.2835 31.4423 39.2184 31.497 39.1636C31.5518 39.1088 31.6169 39.0655 31.6886 39.0362C31.7603 39.0068 31.8371 38.9921 31.9146 38.9928C31.992 38.9934 32.0686 39.0095 32.1397 39.0401C32.2109 39.0707 32.2753 39.1151 32.3291 39.1708L34.7902 41.6319L39.6318 35.714C39.7298 35.5943 39.8713 35.5183 40.0252 35.5029C40.1791 35.4875 40.3328 35.5338 40.4526 35.6317Z" fill="white"/>
<defs>
<linearGradient id="paint0_linear_714_1770" x1="10.5" y1="36.75" x2="38.3404" y2="35.0885" gradientUnits="userSpaceOnUse">
<stop stop-color="#0093D0"/>
<stop offset="0.475" stop-color="#00A0E3"/>
<stop offset="1" stop-color="#0093D0"/>
</linearGradient>
</defs>
</svg>
