<svg width="49" height="49" viewBox="0 0 49 49" fill="none" xmlns="http://www.w3.org/2000/svg">
<rect width="49" height="49" fill="white"/>
<path d="M35.5633 29.228C36.1612 27.7759 36.4858 26.2213 36.4858 24.513C36.4858 23.283 36.2979 22.1042 35.9733 21.0109C34.8629 21.2671 33.7013 21.4038 32.4883 21.4038C30.0044 21.4065 27.5562 20.8119 25.3501 19.6702C23.1441 18.5285 21.2448 16.8732 19.8125 14.8438C18.2818 18.5521 15.3908 21.5347 11.7321 23.1805C11.6638 23.6075 11.6638 24.0688 11.6638 24.513C11.6638 26.1439 11.985 27.7589 12.6091 29.2657C13.2333 30.7725 14.1481 32.1417 15.3014 33.2949C17.6305 35.6241 20.7895 36.9325 24.0833 36.9325C25.8771 36.9325 27.6025 36.5396 29.1571 35.8392C30.1308 37.7013 30.575 38.6238 30.5408 38.6238C27.7392 39.5634 25.5696 40.0246 24.0833 40.0246C19.9492 40.0246 16.0029 38.4017 13.0988 35.4805C11.3307 33.7207 10.0174 31.5573 9.27208 29.1767H7V21.4038H8.86208C9.42625 18.6577 10.7233 16.1155 12.6156 14.047C14.5079 11.9785 16.9249 10.4609 19.6101 9.65517C22.2953 8.84944 25.1485 8.78565 27.8671 9.47058C30.5856 10.1555 33.068 11.5636 35.0508 13.5455C37.203 15.6904 38.6713 18.4249 39.2704 21.4038H41.1667V29.1767H41.0642L34.9825 34.763L25.9283 33.738V30.885H34.1796L35.5633 29.228ZM19.4196 24.12C19.9321 24.12 20.4275 24.325 20.7862 24.7009C21.1468 25.0644 21.3491 25.5556 21.3491 26.0675C21.3491 26.5795 21.1468 27.0707 20.7862 27.4342C20.4275 27.793 19.9321 27.998 19.4196 27.998C18.3433 27.998 17.4721 27.1438 17.4721 26.0675C17.4721 24.9913 18.3433 24.12 19.4196 24.12ZM28.73 24.12C29.8063 24.12 30.6604 24.9913 30.6604 26.0675C30.6604 27.1438 29.8063 27.998 28.73 27.998C27.6538 27.998 26.7825 27.1438 26.7825 26.0675C26.7825 25.551 26.9877 25.0557 27.3529 24.6905C27.7181 24.3252 28.2135 24.12 28.73 24.12Z" fill="#0096D4"/>
</svg>
