<svg width="49" height="49" viewBox="0 0 49 49" fill="none" xmlns="http://www.w3.org/2000/svg">
<rect width="49" height="49" fill="white"/>
<path d="M34.9062 22.1875C35.388 22.1875 35.8397 22.2778 36.2612 22.4585C36.6828 22.6392 37.0501 22.8861 37.3633 23.1992C37.6764 23.5124 37.9233 23.8797 38.104 24.3013C38.2847 24.7228 38.375 25.1745 38.375 25.6562V32.5938C38.375 34.027 38.104 35.376 37.562 36.6406C37.02 37.9053 36.2733 39.0073 35.3218 39.9468C34.3703 40.8862 33.2682 41.627 32.0156 42.1689C30.763 42.7109 29.4141 42.988 27.9688 43C26.2344 43 24.6204 42.6688 23.127 42.0063C21.6335 41.3439 20.2725 40.4045 19.0439 39.188L10.5166 30.6606C10.1794 30.3234 9.92041 29.932 9.73975 29.4863C9.55908 29.0407 9.46875 28.583 9.46875 28.1133C9.46875 27.6074 9.5651 27.1377 9.75781 26.7041C9.95052 26.2705 10.2095 25.8851 10.5347 25.5479C10.8599 25.2106 11.2393 24.9577 11.6729 24.7891C12.1064 24.6204 12.5762 24.5241 13.082 24.5C14.0697 24.5 14.9188 24.8553 15.6294 25.5659L17.5625 27.481V21.4106C16.8519 21.0734 16.2135 20.6519 15.6475 20.146C15.0814 19.6401 14.5996 19.068 14.2021 18.4297C13.8047 17.7913 13.4915 17.1048 13.2627 16.3701C13.0339 15.6354 12.9255 14.8766 12.9375 14.0938C12.9375 12.9736 13.1483 11.9258 13.5698 10.9502C13.9914 9.97461 14.5695 9.11344 15.3042 8.3667C16.0389 7.61995 16.894 7.04183 17.8696 6.63232C18.8452 6.22282 19.8991 6.01204 21.0312 6C22.1514 6 23.1992 6.21077 24.1748 6.63232C25.1504 7.05387 26.0116 7.632 26.7583 8.3667C27.505 9.1014 28.0832 9.95654 28.4927 10.9321C28.9022 11.9077 29.113 12.9616 29.125 14.0938C29.125 15.2139 28.9022 16.2858 28.4565 17.3096C28.0109 18.3333 27.3786 19.2306 26.5596 20.0015C26.9811 20.1099 27.3605 20.2905 27.6978 20.5435C28.035 20.7964 28.3301 21.1095 28.583 21.4829C29.125 21.1818 29.6911 21.0312 30.2812 21.0312C30.8835 21.0312 31.4435 21.1698 31.9614 21.4468C32.4793 21.7238 32.8949 22.1213 33.208 22.6392C33.75 22.3381 34.3161 22.1875 34.9062 22.1875ZM15.25 14.0938C15.25 14.9971 15.4548 15.8582 15.8643 16.6772C16.2738 17.4963 16.8398 18.1768 17.5625 18.7188V14.0938C17.5625 13.612 17.6528 13.1603 17.8335 12.7388C18.0142 12.3172 18.2611 11.9499 18.5742 11.6367C18.8874 11.3236 19.2547 11.0767 19.6763 10.896C20.0978 10.7153 20.5495 10.625 21.0312 10.625C21.513 10.625 21.9647 10.7153 22.3862 10.896C22.8078 11.0767 23.1751 11.3236 23.4883 11.6367C23.8014 11.9499 24.0483 12.3172 24.229 12.7388C24.4097 13.1603 24.5 13.612 24.5 14.0938V18.7188C25.2227 18.1768 25.7887 17.4963 26.1982 16.6772C26.6077 15.8582 26.8125 14.9971 26.8125 14.0938C26.8125 13.2988 26.6619 12.5521 26.3608 11.8535C26.0597 11.1549 25.6442 10.5467 25.1143 10.0288C24.5843 9.5109 23.9701 9.09538 23.2715 8.78223C22.5729 8.46908 21.8262 8.3125 21.0312 8.3125C20.2363 8.3125 19.4896 8.46305 18.791 8.76416C18.0924 9.06527 17.4782 9.48079 16.9482 10.0107C16.4183 10.5407 16.0028 11.1549 15.7017 11.8535C15.4006 12.5521 15.25 13.2988 15.25 14.0938ZM36.0625 25.6562C36.0625 25.3431 35.9481 25.0721 35.7192 24.8433C35.4904 24.6144 35.2194 24.5 34.9062 24.5C34.4967 24.5 34.2137 24.6144 34.0571 24.8433C33.9006 25.0721 33.8042 25.3551 33.7681 25.6924C33.7319 26.0296 33.7259 26.403 33.75 26.8125C33.7741 27.222 33.7741 27.5894 33.75 27.9146C33.7259 28.2397 33.6296 28.5288 33.4609 28.7817C33.2923 29.0347 33.0033 29.1491 32.5938 29.125C32.1481 29.125 31.847 28.9865 31.6904 28.7095C31.5339 28.4325 31.4375 28.0711 31.4014 27.6255C31.3652 27.1799 31.3773 26.7161 31.4375 26.2344C31.4977 25.7526 31.5098 25.2889 31.4736 24.8433C31.4375 24.3976 31.3472 24.0423 31.2026 23.7773C31.0581 23.5124 30.751 23.3678 30.2812 23.3438C29.8717 23.3438 29.5887 23.4582 29.4321 23.687C29.2756 23.9159 29.1792 24.1989 29.1431 24.5361C29.1069 24.8734 29.1009 25.2467 29.125 25.6562C29.1491 26.0658 29.1491 26.4331 29.125 26.7583C29.1009 27.0835 29.0046 27.3726 28.8359 27.6255C28.6673 27.8784 28.3783 27.9928 27.9688 27.9688C27.5231 27.9688 27.222 27.8302 27.0654 27.5532C26.9089 27.2762 26.8125 26.9149 26.7764 26.4692C26.7402 26.0236 26.7523 25.5599 26.8125 25.0781C26.8727 24.5964 26.8848 24.1326 26.8486 23.687C26.8125 23.2414 26.7222 22.8861 26.5776 22.6211C26.4331 22.3561 26.126 22.2116 25.6562 22.1875C25.2467 22.1875 24.9637 22.3019 24.8071 22.5308C24.6506 22.7596 24.5542 23.0426 24.5181 23.3799C24.4819 23.7171 24.4759 24.0905 24.5 24.5C24.5241 24.9095 24.5241 25.2769 24.5 25.6021C24.4759 25.9272 24.3796 26.2163 24.2109 26.4692C24.0423 26.7222 23.7533 26.8366 23.3438 26.8125C23.0306 26.8125 22.7596 26.6981 22.5308 26.4692C22.3019 26.2404 22.1875 25.9694 22.1875 25.6562V14.0938C22.1875 13.7806 22.0731 13.5096 21.8442 13.2808C21.6154 13.0519 21.3444 12.9375 21.0312 12.9375C20.7181 12.9375 20.4471 13.0519 20.2183 13.2808C19.9894 13.5096 19.875 13.7806 19.875 14.0938V28.312C19.875 28.589 19.8268 28.842 19.7305 29.0708C19.6341 29.2996 19.4956 29.5104 19.3149 29.7031C19.1343 29.8958 18.9235 30.0343 18.6826 30.1187C18.4417 30.203 18.1888 30.2572 17.9238 30.2812C17.6589 30.2812 17.4059 30.2331 17.165 30.1367C16.9242 30.0404 16.7013 29.8958 16.4966 29.7031L13.9854 27.1919C13.7324 26.939 13.4313 26.8125 13.082 26.8125C12.7327 26.8125 12.4316 26.939 12.1787 27.1919C11.9258 27.4448 11.7933 27.752 11.7812 28.1133C11.7812 28.4626 11.9077 28.7637 12.1606 29.0166L20.688 37.562C21.6997 38.5737 22.8078 39.3446 24.0122 39.8745C25.2166 40.4045 26.5355 40.6755 27.9688 40.6875C29.0889 40.6875 30.1367 40.4767 31.1123 40.0552C32.0879 39.6336 32.943 39.0555 33.6777 38.3208C34.4124 37.5861 34.9906 36.731 35.4121 35.7554C35.8337 34.7798 36.0505 33.7259 36.0625 32.5938V25.6562Z" fill="#0096D4"/>
</svg>
