<svg width="50" height="50" viewBox="0 0 50 50" fill="none" xmlns="http://www.w3.org/2000/svg">
<path d="M22.9163 6.25L8.33301 20.8333V39.5833C8.33301 41.2409 8.99149 42.8306 10.1636 44.0028C11.3357 45.1749 12.9254 45.8333 14.583 45.8333H33.333C34.9906 45.8333 36.5803 45.1749 37.7524 44.0028C38.9245 42.8306 39.583 41.2409 39.583 39.5833V12.5C39.583 10.8424 38.9245 9.25269 37.7524 8.08058C36.5803 6.90848 34.9906 6.25 33.333 6.25H22.9163ZM23.7705 8.33333H33.333C34.4381 8.33333 35.4979 8.77232 36.2793 9.55372C37.0607 10.3351 37.4997 11.3949 37.4997 12.5V39.5833C37.4997 40.6884 37.0607 41.7482 36.2793 42.5296C35.4979 43.311 34.4381 43.75 33.333 43.75H14.583C13.4779 43.75 12.4181 43.311 11.6367 42.5296C10.8553 41.7482 10.4163 40.6884 10.4163 39.5833V21.6875L23.7705 8.33333ZM16.6663 22.9167V31.25H18.7497V22.9167H16.6663ZM22.9163 22.9167V27.0833H24.9997V22.9167H22.9163ZM29.1663 22.9167V31.25H31.2497V22.9167H29.1663ZM22.9163 31.25V39.5833H24.9997V31.25H22.9163ZM16.6663 35.4167V39.5833H18.7497V35.4167H16.6663ZM29.1663 35.4167V39.5833H31.2497V35.4167H29.1663Z" fill="black"/>
</svg>
