<svg width="50" height="50" viewBox="0 0 50 50" fill="none" xmlns="http://www.w3.org/2000/svg">
<path d="M9.12324 14.2978L11.8188 11.6008C11.8188 11.6008 21.7041 14.8964 27.3968 18.1919L33.735 11.8537C34.6806 10.9081 35.8835 10.2522 37.21 10.0714C38.2218 9.93312 39.4629 9.80371 40.5777 9.80371L41.1762 10.4022C41.1762 11.5155 41.0468 12.7581 40.9085 13.7699C40.7277 15.0964 40.0718 16.2993 39.1262 17.2464L32.7879 23.5846C36.0835 29.2758 39.3791 39.1611 39.3791 39.1611L36.6821 41.8567C36.6821 41.8567 31.2909 34.0684 26.7968 29.5743C26.7968 29.5743 23.4674 31.7067 18.41 36.7655C18.41 36.7655 19.0085 39.1611 19.0085 41.5581L18.41 42.1567C18.41 42.1567 16.0129 39.1611 13.9159 37.064C11.8188 34.9669 8.82324 32.5714 8.82324 32.5714L9.42177 31.9714C11.8188 31.9714 14.2159 32.5699 14.2159 32.5699C19.2732 27.5125 21.4056 24.1831 21.4056 24.1831C16.9115 19.689 9.12324 14.2978 9.12324 14.2978Z" stroke="black"/>
</svg>
