<svg width="353" height="146" viewBox="0 0 353 146" fill="none" xmlns="http://www.w3.org/2000/svg">
<g opacity="0.2">
<circle cx="349" cy="4" r="4" transform="rotate(90 349 4)" fill="#1C5291"/>
<circle cx="326" cy="4" r="4" transform="rotate(90 326 4)" fill="#1C5291"/>
<circle cx="303" cy="4" r="4" transform="rotate(90 303 4)" fill="#1C5291"/>
<circle cx="280" cy="4" r="4" transform="rotate(90 280 4)" fill="#1C5291"/>
<circle cx="257" cy="4" r="4" transform="rotate(90 257 4)" fill="#1C5291"/>
<circle cx="234" cy="4" r="4" transform="rotate(90 234 4)" fill="#1C5291"/>
<circle cx="211" cy="4" r="4" transform="rotate(90 211 4)" fill="#1C5291"/>
<circle cx="188" cy="4" r="4" transform="rotate(90 188 4)" fill="#1C5291"/>
<circle cx="165" cy="3.99998" r="4" transform="rotate(90 165 3.99998)" fill="#1C5291"/>
<circle cx="142" cy="3.99998" r="4" transform="rotate(90 142 3.99998)" fill="#1C5291"/>
<circle cx="119" cy="3.99998" r="4" transform="rotate(90 119 3.99998)" fill="#1C5291"/>
<circle cx="96" cy="3.99998" r="4" transform="rotate(90 96 3.99998)" fill="#1C5291"/>
<circle cx="73" cy="3.99998" r="4" transform="rotate(90 73 3.99998)" fill="#1C5291"/>
<circle cx="50" cy="3.99998" r="4" transform="rotate(90 50 3.99998)" fill="#1C5291"/>
<circle cx="27" cy="3.99998" r="4" transform="rotate(90 27 3.99998)" fill="#1C5291"/>
<circle cx="4" cy="3.99998" r="4" transform="rotate(90 4 3.99998)" fill="#1C5291"/>
<circle cx="349" cy="27" r="4" transform="rotate(90 349 27)" fill="#1C5291"/>
<circle cx="326" cy="27" r="4" transform="rotate(90 326 27)" fill="#1C5291"/>
<circle cx="303" cy="27" r="4" transform="rotate(90 303 27)" fill="#1C5291"/>
<circle cx="280" cy="27" r="4" transform="rotate(90 280 27)" fill="#1C5291"/>
<circle cx="257" cy="27" r="4" transform="rotate(90 257 27)" fill="#1C5291"/>
<circle cx="234" cy="27" r="4" transform="rotate(90 234 27)" fill="#1C5291"/>
<circle cx="211" cy="27" r="4" transform="rotate(90 211 27)" fill="#1C5291"/>
<circle cx="188" cy="27" r="4" transform="rotate(90 188 27)" fill="#1C5291"/>
<circle cx="165" cy="27" r="4" transform="rotate(90 165 27)" fill="#1C5291"/>
<circle cx="142" cy="27" r="4" transform="rotate(90 142 27)" fill="#1C5291"/>
<circle cx="119" cy="27" r="4" transform="rotate(90 119 27)" fill="#1C5291"/>
<circle cx="96" cy="27" r="4" transform="rotate(90 96 27)" fill="#1C5291"/>
<circle cx="73" cy="27" r="4" transform="rotate(90 73 27)" fill="#1C5291"/>
<circle cx="50" cy="27" r="4" transform="rotate(90 50 27)" fill="#1C5291"/>
<circle cx="27" cy="27" r="4" transform="rotate(90 27 27)" fill="#1C5291"/>
<circle cx="4" cy="27" r="4" transform="rotate(90 4 27)" fill="#1C5291"/>
<circle cx="349" cy="50" r="4" transform="rotate(90 349 50)" fill="#1C5291"/>
<circle cx="326" cy="50" r="4" transform="rotate(90 326 50)" fill="#1C5291"/>
<circle cx="303" cy="50" r="4" transform="rotate(90 303 50)" fill="#1C5291"/>
<circle cx="280" cy="50" r="4" transform="rotate(90 280 50)" fill="#1C5291"/>
<circle cx="257" cy="50" r="4" transform="rotate(90 257 50)" fill="#1C5291"/>
<circle cx="234" cy="50" r="4" transform="rotate(90 234 50)" fill="#1C5291"/>
<circle cx="211" cy="50" r="4" transform="rotate(90 211 50)" fill="#1C5291"/>
<circle cx="188" cy="50" r="4" transform="rotate(90 188 50)" fill="#1C5291"/>
<circle cx="165" cy="50" r="4" transform="rotate(90 165 50)" fill="#1C5291"/>
<circle cx="142" cy="50" r="4" transform="rotate(90 142 50)" fill="#1C5291"/>
<circle cx="119" cy="50" r="4" transform="rotate(90 119 50)" fill="#1C5291"/>
<circle cx="96" cy="50" r="4" transform="rotate(90 96 50)" fill="#1C5291"/>
<circle cx="73" cy="50" r="4" transform="rotate(90 73 50)" fill="#1C5291"/>
<circle cx="50" cy="50" r="4" transform="rotate(90 50 50)" fill="#1C5291"/>
<circle cx="27" cy="50" r="4" transform="rotate(90 27 50)" fill="#1C5291"/>
<circle cx="4" cy="50" r="4" transform="rotate(90 4 50)" fill="#1C5291"/>
<circle cx="349" cy="73" r="4" transform="rotate(90 349 73)" fill="#1C5291"/>
<circle cx="326" cy="73" r="4" transform="rotate(90 326 73)" fill="#1C5291"/>
<circle cx="303" cy="73" r="4" transform="rotate(90 303 73)" fill="#1C5291"/>
<circle cx="280" cy="73" r="4" transform="rotate(90 280 73)" fill="#1C5291"/>
<circle cx="257" cy="73" r="4" transform="rotate(90 257 73)" fill="#1C5291"/>
<circle cx="234" cy="73" r="4" transform="rotate(90 234 73)" fill="#1C5291"/>
<circle cx="211" cy="73" r="4" transform="rotate(90 211 73)" fill="#1C5291"/>
<circle cx="188" cy="73" r="4" transform="rotate(90 188 73)" fill="#1C5291"/>
<circle cx="165" cy="73" r="4" transform="rotate(90 165 73)" fill="#1C5291"/>
<circle cx="142" cy="73" r="4" transform="rotate(90 142 73)" fill="#1C5291"/>
<circle cx="119" cy="73" r="4" transform="rotate(90 119 73)" fill="#1C5291"/>
<circle cx="96" cy="73" r="4" transform="rotate(90 96 73)" fill="#1C5291"/>
<circle cx="73" cy="73" r="4" transform="rotate(90 73 73)" fill="#1C5291"/>
<circle cx="50" cy="73" r="4" transform="rotate(90 50 73)" fill="#1C5291"/>
<circle cx="27" cy="73" r="4" transform="rotate(90 27 73)" fill="#1C5291"/>
<circle cx="4" cy="73" r="4" transform="rotate(90 4 73)" fill="#1C5291"/>
<circle cx="349" cy="96" r="4" transform="rotate(90 349 96)" fill="#1C5291"/>
<circle cx="326" cy="96" r="4" transform="rotate(90 326 96)" fill="#1C5291"/>
<circle cx="303" cy="96" r="4" transform="rotate(90 303 96)" fill="#1C5291"/>
<circle cx="280" cy="96" r="4" transform="rotate(90 280 96)" fill="#1C5291"/>
<circle cx="257" cy="96" r="4" transform="rotate(90 257 96)" fill="#1C5291"/>
<circle cx="234" cy="96" r="4" transform="rotate(90 234 96)" fill="#1C5291"/>
<circle cx="211" cy="96" r="4" transform="rotate(90 211 96)" fill="#1C5291"/>
<circle cx="188" cy="96" r="4" transform="rotate(90 188 96)" fill="#1C5291"/>
<circle cx="165" cy="96" r="4" transform="rotate(90 165 96)" fill="#1C5291"/>
<circle cx="142" cy="96" r="4" transform="rotate(90 142 96)" fill="#1C5291"/>
<circle cx="119" cy="96" r="4" transform="rotate(90 119 96)" fill="#1C5291"/>
<circle cx="96" cy="96" r="4" transform="rotate(90 96 96)" fill="#1C5291"/>
<circle cx="73" cy="96" r="4" transform="rotate(90 73 96)" fill="#1C5291"/>
<circle cx="50" cy="96" r="4" transform="rotate(90 50 96)" fill="#1C5291"/>
<circle cx="27" cy="96" r="4" transform="rotate(90 27 96)" fill="#1C5291"/>
<circle cx="4" cy="96" r="4" transform="rotate(90 4 96)" fill="#1C5291"/>
<circle cx="349" cy="119" r="4" transform="rotate(90 349 119)" fill="#1C5291"/>
<circle cx="326" cy="119" r="4" transform="rotate(90 326 119)" fill="#1C5291"/>
<circle cx="303" cy="119" r="4" transform="rotate(90 303 119)" fill="#1C5291"/>
<circle cx="280" cy="119" r="4" transform="rotate(90 280 119)" fill="#1C5291"/>
<circle cx="257" cy="119" r="4" transform="rotate(90 257 119)" fill="#1C5291"/>
<circle cx="234" cy="119" r="4" transform="rotate(90 234 119)" fill="#1C5291"/>
<circle cx="211" cy="119" r="4" transform="rotate(90 211 119)" fill="#1C5291"/>
<circle cx="188" cy="119" r="4" transform="rotate(90 188 119)" fill="#1C5291"/>
<circle cx="165" cy="119" r="4" transform="rotate(90 165 119)" fill="#1C5291"/>
<circle cx="142" cy="119" r="4" transform="rotate(90 142 119)" fill="#1C5291"/>
<circle cx="119" cy="119" r="4" transform="rotate(90 119 119)" fill="#1C5291"/>
<circle cx="96" cy="119" r="4" transform="rotate(90 96 119)" fill="#1C5291"/>
<circle cx="73" cy="119" r="4" transform="rotate(90 73 119)" fill="#1C5291"/>
<circle cx="50" cy="119" r="4" transform="rotate(90 50 119)" fill="#1C5291"/>
<circle cx="27" cy="119" r="4" transform="rotate(90 27 119)" fill="#1C5291"/>
<circle cx="4" cy="119" r="4" transform="rotate(90 4 119)" fill="#1C5291"/>
<circle cx="349" cy="142" r="4" transform="rotate(90 349 142)" fill="#1C5291"/>
<circle cx="326" cy="142" r="4" transform="rotate(90 326 142)" fill="#1C5291"/>
<circle cx="303" cy="142" r="4" transform="rotate(90 303 142)" fill="#1C5291"/>
<circle cx="280" cy="142" r="4" transform="rotate(90 280 142)" fill="#1C5291"/>
<circle cx="257" cy="142" r="4" transform="rotate(90 257 142)" fill="#1C5291"/>
<circle cx="234" cy="142" r="4" transform="rotate(90 234 142)" fill="#1C5291"/>
<circle cx="211" cy="142" r="4" transform="rotate(90 211 142)" fill="#1C5291"/>
<circle cx="188" cy="142" r="4" transform="rotate(90 188 142)" fill="#1C5291"/>
<circle cx="165" cy="142" r="4" transform="rotate(90 165 142)" fill="#1C5291"/>
<circle cx="142" cy="142" r="4" transform="rotate(90 142 142)" fill="#1C5291"/>
<circle cx="119" cy="142" r="4" transform="rotate(90 119 142)" fill="#1C5291"/>
<circle cx="96" cy="142" r="4" transform="rotate(90 96 142)" fill="#1C5291"/>
<circle cx="73" cy="142" r="4" transform="rotate(90 73 142)" fill="#1C5291"/>
<circle cx="50" cy="142" r="4" transform="rotate(90 50 142)" fill="#1C5291"/>
<circle cx="27" cy="142" r="4" transform="rotate(90 27 142)" fill="#1C5291"/>
<circle cx="4" cy="142" r="4" transform="rotate(90 4 142)" fill="#1C5291"/>
</g>
</svg>
