<svg width="142" height="53" viewBox="0 0 142 53" fill="none" xmlns="http://www.w3.org/2000/svg">
<g clip-path="url(#clip0_2411_11558)">
<mask id="mask0_2411_11558" style="mask-type:luminance" maskUnits="userSpaceOnUse" x="43" y="36" width="10" height="11">
<path d="M43.8269 36.6729H52.1517V46.7071H43.8269V36.6729Z" fill="white"/>
</mask>
<g mask="url(#mask0_2411_11558)">
<path fill-rule="evenodd" clip-rule="evenodd" d="M43.8269 41.7868C43.8269 38.507 45.8427 36.6729 49.0806 36.6729C50.4705 36.6729 51.429 36.9923 52.1099 37.4506V39.5633H50.776C50.4834 39.3127 49.9283 38.9932 49.1775 38.9932C47.9684 38.9932 47.2046 39.758 47.2046 41.648C47.2046 43.7188 47.8576 44.4416 49.0387 44.4416C49.9283 44.4416 50.4984 44.1221 50.8728 43.7607H52.1518V45.7196C51.415 46.2618 50.3586 46.7071 48.7881 46.7071C45.7169 46.7071 43.8269 44.9698 43.8269 41.7868Z" fill="white"/>
</g>
<path fill-rule="evenodd" clip-rule="evenodd" d="M56.2385 40.174C56.8506 39.5899 57.6563 39.0757 58.7815 39.0757C59.9217 39.0757 60.7974 39.5759 60.7974 41.2013V46.5529H57.7122V42.022C57.7122 41.4939 57.4616 41.3831 56.8915 41.3831C56.6549 41.3831 56.4192 41.425 56.2385 41.4659V46.5529H53.1394V36.8242H55.1822C56.0578 36.8242 56.2385 37.0608 56.2385 38.3528V40.174Z" fill="white"/>
<path fill-rule="evenodd" clip-rule="evenodd" d="M77.8642 46.1078V44.2737H78.9475C79.1981 44.5093 79.8231 44.746 80.519 44.746C81.0192 44.746 81.4216 44.6761 81.4216 44.3985C81.4216 44.092 81.172 44.065 80.1856 43.9123C78.6839 43.7036 77.7664 43.2313 77.7664 41.5769C77.7664 39.8407 79.1981 39.0898 81.0881 39.0898C82.3811 39.0898 83.104 39.2696 83.7979 39.5341V41.3413H82.7705C82.45 41.1326 81.9498 40.9519 81.2409 40.9519C80.6578 40.9519 80.4352 41.0627 80.4352 41.2994C80.4352 41.55 80.6987 41.6189 81.5744 41.7297C83.2427 41.9254 84.1873 42.3697 84.1873 44.0371C84.1873 45.7184 83.0201 46.6639 80.6299 46.6639C79.268 46.6639 78.4752 46.3994 77.8642 46.1078Z" fill="white"/>
<path fill-rule="evenodd" clip-rule="evenodd" d="M87.6625 42.1324H89.3579C89.3159 41.2158 89.0524 40.9383 88.5382 40.9383C88.1068 40.9383 87.7594 41.1459 87.6625 42.1324ZM87.6765 43.5502C87.8013 44.4677 88.2606 44.7183 89.1212 44.7183C89.942 44.7183 90.5121 44.5097 90.9004 44.274H91.8869V45.9544C91.165 46.3438 90.2475 46.6782 88.635 46.6782C85.8833 46.6782 84.5774 45.2455 84.5774 42.9251C84.5774 40.5758 86.106 39.0752 88.5382 39.0752C90.9843 39.0752 92.1934 40.3123 92.1934 42.8692C92.1934 43.2167 92.1655 43.4533 92.1655 43.5502H87.6765Z" fill="white"/>
<path fill-rule="evenodd" clip-rule="evenodd" d="M96.0215 46.5529V36.8242H99.3293V40.4525H101.567V36.8242H104.875V46.5529H101.567V42.8008H99.3293V46.5529H96.0215Z" fill="white"/>
<path fill-rule="evenodd" clip-rule="evenodd" d="M109.934 44.7453V43.5921C109.753 43.5641 109.531 43.5362 109.365 43.5362C108.892 43.5362 108.627 43.7588 108.627 44.287C108.627 44.7872 108.934 44.9679 109.295 44.9679C109.518 44.9679 109.753 44.8701 109.934 44.7453ZM110.087 45.8985C109.573 46.4276 108.906 46.6493 108.03 46.6493C106.821 46.6493 105.751 45.9544 105.751 44.4807C105.751 42.9251 106.876 42.2292 108.6 42.2292C109.114 42.2292 109.545 42.2582 109.934 42.3271V42.0625C109.934 41.4654 109.629 41.2428 108.809 41.2428C108.155 41.2428 107.6 41.4245 107.265 41.6182H106.279V39.6453C106.946 39.3667 108.1 39.0752 109.503 39.0752C111.908 39.0752 113.019 39.867 113.019 41.8408V46.5524H110.99C110.462 46.5524 110.212 46.3028 110.087 45.8985Z" fill="white"/>
<path fill-rule="evenodd" clip-rule="evenodd" d="M117.829 44.6205C118.441 44.6205 118.913 44.3289 118.913 42.9112C118.913 41.6042 118.454 41.3127 117.857 41.3127C117.662 41.3127 117.413 41.3686 117.19 41.4375V44.4677C117.357 44.5646 117.551 44.6205 117.829 44.6205ZM117.19 46.0103V48.8029H114.09V39.214H116.286C116.718 39.214 116.967 39.3388 117.092 40.0896C117.634 39.4786 118.329 39.0752 119.344 39.0752C120.705 39.0752 122.04 39.9089 122.04 42.6466C122.04 45.4821 120.567 46.4965 118.941 46.4965C118.162 46.4965 117.606 46.3298 117.19 46.0103Z" fill="white"/>
<path fill-rule="evenodd" clip-rule="evenodd" d="M126.572 44.6205C127.183 44.6205 127.656 44.3289 127.656 42.9112C127.656 41.6042 127.197 41.3127 126.6 41.3127C126.405 41.3127 126.155 41.3686 125.933 41.4375V44.4677C126.099 44.5646 126.295 44.6205 126.572 44.6205ZM125.933 46.0103V48.8029H122.833V39.214H125.03C125.46 39.214 125.71 39.3388 125.835 40.0896C126.377 39.4786 127.072 39.0752 128.087 39.0752C129.449 39.0752 130.784 39.9089 130.784 42.6466C130.784 45.4821 129.31 46.4965 127.684 46.4965C126.906 46.4965 126.349 46.3298 125.933 46.0103Z" fill="white"/>
<path fill-rule="evenodd" clip-rule="evenodd" d="M132.563 48.1927L133.495 46.2188L130.965 39.8259V39.2148H133.939L135.148 42.912H135.189L136.329 39.2148H138.956V39.8259L135.496 48.8038H132.563V48.1927Z" fill="white"/>
<path fill-rule="evenodd" clip-rule="evenodd" d="M65.1835 44.0194C64.5695 44.0194 64.0723 43.5222 64.0723 42.9081C64.0723 42.2931 64.5695 41.7959 65.1835 41.7959C65.7976 41.7959 66.2948 42.2931 66.2948 42.9081C66.2948 43.5222 65.7976 44.0194 65.1835 44.0194ZM65.1835 39.0762C63.0669 39.0762 61.3516 40.7915 61.3516 42.9081C61.3516 45.0248 63.0669 46.7411 65.1835 46.7411C67.3002 46.7411 69.0155 45.0248 69.0155 42.9081C69.0155 40.7915 67.3002 39.0762 65.1835 39.0762Z" fill="white"/>
<path fill-rule="evenodd" clip-rule="evenodd" d="M73.3571 44.0194C72.7431 44.0194 72.2459 43.5222 72.2459 42.9081C72.2459 42.2931 72.7431 41.7959 73.3571 41.7959C73.9712 41.7959 74.4684 42.2931 74.4684 42.9081C74.4684 43.5222 73.9712 44.0194 73.3571 44.0194ZM73.3571 39.0762C71.2395 39.0762 69.5251 40.7915 69.5251 42.9081C69.5251 45.0248 71.2395 46.7411 73.3571 46.7411C75.4738 46.7411 77.1891 45.0248 77.1891 42.9081C77.1891 40.7915 75.4738 39.0762 73.3571 39.0762Z" fill="white"/>
<path fill-rule="evenodd" clip-rule="evenodd" d="M75.663 48.8226C75.643 48.7907 75.4553 48.4972 75.1258 48.2396C74.6436 47.8631 74.1064 47.7523 73.5723 47.9191C73.3306 47.9949 73.1949 48.2525 73.2707 48.4942C73.3466 48.7378 73.6032 48.8726 73.8468 48.7967C73.9087 48.7777 73.9686 48.7687 74.0266 48.7667C73.4195 50.3093 71.8001 51.752 69.318 51.752C67.374 51.752 65.1635 50.6348 64.5744 48.7448C64.6673 48.7418 64.7322 48.7468 64.7422 48.7478C64.9948 48.7717 65.2194 48.59 65.2444 48.3384C65.2723 48.0848 65.0886 47.8582 64.836 47.8332C64.7981 47.8292 64.4506 47.7973 64.0462 47.8971C63.4532 48.0469 63.0348 48.4003 62.8371 48.9245C62.7463 49.1611 62.8671 49.4257 63.1047 49.5165C63.1576 49.5365 63.2116 49.5465 63.2665 49.5465C63.4532 49.5465 63.6269 49.4327 63.6958 49.249C63.7108 49.21 63.7277 49.1751 63.7477 49.1421C64.3967 50.9493 66.4125 52.6706 69.318 52.6706C72.1695 52.6706 74.0625 51.0272 74.8283 49.233C74.8612 49.2759 74.8812 49.3059 74.8852 49.3129C74.9731 49.4507 75.1218 49.5265 75.2746 49.5265C75.3585 49.5265 75.4423 49.5046 75.5172 49.4556C75.7339 49.3209 75.7978 49.0373 75.663 48.8226Z" fill="white"/>
<path fill-rule="evenodd" clip-rule="evenodd" d="M139.402 37.0898V38.3229H139.116V37.0898H138.715V36.8232H139.803V37.0898H139.402Z" fill="white"/>
<mask id="mask1_2411_11558" style="mask-type:luminance" maskUnits="userSpaceOnUse" x="139" y="36" width="3" height="3">
<path d="M139.976 36.8252H141.451V38.3248H139.976V36.8252Z" fill="white"/>
</mask>
<g mask="url(#mask1_2411_11558)">
<path fill-rule="evenodd" clip-rule="evenodd" d="M141.452 38.3248H141.171V37.2246L140.867 38.3248H140.561L140.258 37.2246V38.3248H139.976V36.8252H140.4L140.713 37.9484L141.027 36.8252H141.452V38.3248Z" fill="white"/>
</g>
<path fill-rule="evenodd" clip-rule="evenodd" d="M31.3221 23.498C29.5051 23.498 28.0302 22.025 28.0302 20.2078C28.0302 18.3886 29.5051 16.9176 31.3221 16.9176C33.1391 16.9176 34.614 18.3886 34.614 20.2078C34.614 22.025 33.1391 23.498 31.3221 23.498ZM31.3221 9.09375C25.1828 9.09375 20.207 14.0679 20.207 20.2078C20.207 26.3456 25.1828 31.3218 31.3221 31.3218C37.4614 31.3218 42.4351 26.3456 42.4351 20.2078C42.4351 14.0679 37.4614 9.09375 31.3221 9.09375Z" fill="white"/>
<path fill-rule="evenodd" clip-rule="evenodd" d="M55.5744 25.1047C52.8691 25.1047 50.6779 22.9128 50.6779 20.2068C50.6779 17.5007 52.8691 15.3088 55.5744 15.3088C58.2756 15.3088 60.469 17.5007 60.469 20.2068C60.469 22.9128 58.2756 25.1047 55.5744 25.1047ZM55.5744 9.09375C49.4348 9.09375 44.4563 14.0675 44.4563 20.2068C44.4563 26.344 49.4348 31.3218 55.5744 31.3218C61.708 31.3218 66.6844 26.344 66.6844 20.2068C66.6844 14.0675 61.708 9.09375 55.5744 9.09375Z" fill="white"/>
<path fill-rule="evenodd" clip-rule="evenodd" d="M104.068 27.6079C99.9785 27.6079 96.6679 24.2935 96.6679 20.2088C96.6679 16.12 99.9785 12.8056 104.068 12.8056C108.155 12.8056 111.47 16.12 111.47 20.2088C111.47 24.2935 108.155 27.6079 104.068 27.6079ZM104.068 9.09375C97.9278 9.09375 92.9536 14.0695 92.9536 20.2088C92.9536 26.3461 97.9278 31.3218 104.068 31.3218C110.208 31.3218 115.182 26.3461 115.182 20.2088C115.182 14.0695 110.208 9.09375 104.068 9.09375Z" fill="white"/>
<path fill-rule="evenodd" clip-rule="evenodd" d="M79.8191 26.1471C76.5029 26.1471 73.8176 23.4262 73.8176 20.0708C73.8176 16.7132 76.5029 13.9902 79.8191 13.9902C83.1353 13.9902 85.8247 16.7132 85.8247 20.0708C85.8247 23.4262 83.1353 26.1471 79.8191 26.1471ZM85.6322 0V10.4813C83.9423 9.42774 81.9514 8.8201 79.8191 8.8201C73.6824 8.8201 68.7051 13.8554 68.7051 20.0708C68.7051 26.284 73.6824 31.3214 79.8191 31.3214C85.9476 31.3214 90.9188 26.2965 90.9332 20.0936V0H85.6322Z" fill="white"/>
<mask id="mask2_2411_11558" style="mask-type:luminance" maskUnits="userSpaceOnUse" x="0" y="9" width="24" height="29">
<path d="M0.000732422 9.39062H23.047V37.383H0.000732422V9.39062Z" fill="white"/>
</mask>
<g mask="url(#mask2_2411_11558)">
<path fill-rule="evenodd" clip-rule="evenodd" d="M13.4241 9.39062C13.4241 9.39062 8.3708 15.0603 6.65961 16.9628C6.66595 14.7045 6.65961 9.39062 6.65961 9.39062H0.000732422V37.3832H6.65961C6.65961 37.3832 6.6575 25.8429 6.65961 23.1117C8.44052 25.033 14.5586 31.6319 14.5586 31.6319H23.047C23.047 31.6319 13.0502 20.8535 12.2791 20.0289C13.0291 19.1917 21.7878 9.39062 21.7878 9.39062H13.4241Z" fill="white"/>
</g>
<path fill-rule="evenodd" clip-rule="evenodd" d="M114.366 10.5075H114.653C114.894 10.5075 115.118 10.4961 115.118 10.2147C115.118 9.98135 114.915 9.94246 114.73 9.94246H114.366V10.5075ZM114.093 9.72056H114.774C115.193 9.72056 115.391 9.88756 115.391 10.2261C115.391 10.5487 115.188 10.6814 114.926 10.7088L115.432 11.4912H115.136L114.655 10.7294H114.366V11.4912H114.093V9.72056ZM114.68 11.9007C115.379 11.9007 115.919 11.3425 115.919 10.6013C115.919 9.87612 115.379 9.31565 114.68 9.31565C113.974 9.31565 113.435 9.87612 113.435 10.6013C113.435 11.3425 113.974 11.9007 114.68 11.9007ZM114.68 9.09375C115.505 9.09375 116.192 9.74572 116.192 10.6013C116.192 11.4706 115.505 12.1249 114.68 12.1249C113.854 12.1249 113.161 11.4706 113.161 10.6013C113.161 9.74572 113.854 9.09375 114.68 9.09375Z" fill="white"/>
</g>
<defs>
<clipPath id="clip0_2411_11558">
<rect width="141.673" height="53" fill="white"/>
</clipPath>
</defs>
</svg>
