<svg width="25" height="25" viewBox="0 0 25 25" fill="none" xmlns="http://www.w3.org/2000/svg">
<path d="M12.333 14.5C14.539 14.5 16.333 12.706 16.333 10.5C16.333 8.294 14.539 6.5 12.333 6.5C10.127 6.5 8.33301 8.294 8.33301 10.5C8.33301 12.706 10.127 14.5 12.333 14.5ZM12.333 8.5C13.436 8.5 14.333 9.397 14.333 10.5C14.333 11.603 13.436 12.5 12.333 12.5C11.23 12.5 10.333 11.603 10.333 10.5C10.333 9.397 11.23 8.5 12.333 8.5Z" fill="black"/>
<path d="M11.7531 22.314C11.9225 22.4346 12.1252 22.4994 12.3331 22.4994C12.541 22.4994 12.7437 22.4346 12.9131 22.314C13.2171 22.099 20.3621 16.94 20.3331 10.5C20.3331 6.089 16.7441 2.5 12.3331 2.5C7.9221 2.5 4.3331 6.089 4.3331 10.495C4.3041 16.94 11.4491 22.099 11.7531 22.314ZM12.3331 4.5C15.6421 4.5 18.3331 7.191 18.3331 10.505C18.3541 14.943 13.9451 18.928 12.3331 20.235C10.7221 18.927 6.3121 14.941 6.3331 10.5C6.3331 7.191 9.0241 4.5 12.3331 4.5Z" fill="black"/>
</svg>
