<svg width="27" height="27" viewBox="0 0 27 27" fill="none" xmlns="http://www.w3.org/2000/svg">
<path d="M11.625 15.4056L9.84437 13.625L8.875 14.5944L11.625 17.3444L17.125 11.8444L16.1556 10.875L11.625 15.4056Z" fill="black"/>
<path d="M13 24.625L8.75401 22.3611C7.54345 21.7172 6.53111 20.7558 5.82569 19.5801C5.12027 18.4043 4.7484 17.0586 4.75001 15.6875V6.75C4.75001 6.38533 4.89487 6.03559 5.15273 5.77773C5.4106 5.51987 5.76033 5.375 6.12501 5.375H19.875C20.2397 5.375 20.5894 5.51987 20.8473 5.77773C21.1051 6.03559 21.25 6.38533 21.25 6.75V15.6875C21.2516 17.0586 20.8797 18.4043 20.1743 19.5801C19.4689 20.7558 18.4566 21.7172 17.246 22.3611L13 24.625ZM6.12501 6.75V15.6875C6.12424 16.8093 6.4288 17.9101 7.00602 18.872C7.58325 19.8339 8.41138 20.6205 9.40163 21.1476L13 23.0664L16.5984 21.1483C17.5887 20.6212 18.4169 19.8344 18.9942 18.8724C19.5714 17.9104 19.8759 16.8094 19.875 15.6875V6.75H6.12501Z" fill="black"/>
</svg>
