<svg width="25" height="25" viewBox="0 0 25 25" fill="none" xmlns="http://www.w3.org/2000/svg">
<path d="M12.4997 14.5833C14.7976 14.5833 16.6663 12.7146 16.6663 10.4167C16.6663 8.11875 14.7976 6.25 12.4997 6.25C10.2018 6.25 8.33301 8.11875 8.33301 10.4167C8.33301 12.7146 10.2018 14.5833 12.4997 14.5833ZM12.4997 8.33333C13.6486 8.33333 14.583 9.26771 14.583 10.4167C14.583 11.5656 13.6486 12.5 12.4997 12.5C11.3507 12.5 10.4163 11.5656 10.4163 10.4167C10.4163 9.26771 11.3507 8.33333 12.4997 8.33333Z" fill="#8227D2"/>
<path d="M11.8953 22.7236C12.0717 22.8492 12.2829 22.9167 12.4994 22.9167C12.716 22.9167 12.9272 22.8492 13.1036 22.7236C13.4203 22.4996 20.863 17.1257 20.8328 10.4173C20.8328 5.82253 17.0942 2.08398 12.4994 2.08398C7.90465 2.08398 4.16611 5.82253 4.16611 10.4121C4.1359 17.1257 11.5786 22.4996 11.8953 22.7236ZM12.4994 4.16732C15.9463 4.16732 18.7494 6.97044 18.7494 10.4225C18.7713 15.0454 14.1786 19.1965 12.4994 20.5579C10.8213 19.1954 6.22757 15.0434 6.24944 10.4173C6.24944 6.97044 9.05257 4.16732 12.4994 4.16732Z" fill="#8227D2"/>
</svg>
