<svg width="50" height="50" viewBox="0 0 50 50" fill="none" xmlns="http://www.w3.org/2000/svg">
<path d="M16.1452 28.8545L21.1452 33.8545M16.1452 28.8545C16.1452 28.8545 19.0973 21.4753 23.2993 16.3545M16.1452 28.8545C5.27227 26.1357 15.041 16.3545 23.2993 16.3545M21.1452 33.8545C21.1452 33.8545 28.5243 30.9024 33.6452 26.7003M21.1452 33.8545C23.8639 44.7253 33.6452 34.9587 33.6452 26.7003M23.2993 16.3545C27.5493 11.1753 34.5556 8.85449 41.1452 8.85449C41.1452 15.4441 38.8243 22.4482 33.6452 26.7003M30.1035 19.7024L31.5764 18.2295M11.4973 34.5337C9.51393 36.2024 8.85352 41.1566 8.85352 41.1566C8.85352 41.1566 13.7952 40.4941 15.4598 38.5066C16.3973 37.3941 16.3848 35.6857 15.341 34.6524C14.825 34.1673 14.1495 33.8876 13.4416 33.8657C12.7337 33.8438 12.0423 34.0814 11.4973 34.5337Z" stroke="black" stroke-width="1.5" stroke-linecap="round" stroke-linejoin="round"/>
</svg>
