<svg width="27" height="28" viewBox="0 0 27 28" fill="none" xmlns="http://www.w3.org/2000/svg">
<path d="M8.5 20.116H9.5V18.692H8.5V20.116ZM8.5 16.308H9.5V12.885H8.5V16.308ZM12.5 20.116H13.5V16.692H12.5V20.116ZM12.5 14.308H13.5V12.885H12.5V14.308ZM16.5 20.116H17.5V18.692H16.5V20.116ZM16.5 16.308H17.5V12.885H16.5V16.308ZM7.616 22.5C7.15533 22.5 6.771 22.346 6.463 22.038C6.155 21.73 6.00067 21.3457 6 20.885V9.923L11.423 4.5H18.385C18.845 4.5 19.2293 4.65433 19.538 4.963C19.8467 5.27167 20.0007 5.65567 20 6.115V20.885C20 21.345 19.846 21.729 19.538 22.037C19.23 22.345 18.8453 22.4993 18.384 22.5H7.616Z" fill="#2C3034"/>
</svg>
