<svg width="27" height="28" viewBox="0 0 27 28" fill="none" xmlns="http://www.w3.org/2000/svg">
<path d="M19 20.5C17.89 20.5 17 21.39 17 22.5C17 23.0304 17.2107 23.5391 17.5858 23.9142C17.9609 24.2893 18.4696 24.5 19 24.5C19.5304 24.5 20.0391 24.2893 20.4142 23.9142C20.7893 23.5391 21 23.0304 21 22.5C21 21.9696 20.7893 21.4609 20.4142 21.0858C20.0391 20.7107 19.5304 20.5 19 20.5ZM3 4.5V6.5H5L8.6 14.09L7.24 16.54C7.09 16.82 7 17.15 7 17.5C7 18.0304 7.21071 18.5391 7.58579 18.9142C7.96086 19.2893 8.46957 19.5 9 19.5H21V17.5H9.42C9.3537 17.5 9.29011 17.4737 9.24322 17.4268C9.19634 17.3799 9.17 17.3163 9.17 17.25C9.17 17.2 9.18 17.16 9.2 17.13L10.1 15.5H17.55C18.3 15.5 18.96 15.08 19.3 14.47L22.88 8C22.95 7.84 23 7.67 23 7.5C23 7.23478 22.8946 6.98043 22.7071 6.79289C22.5196 6.60536 22.2652 6.5 22 6.5H7.21L6.27 4.5M9 20.5C7.89 20.5 7 21.39 7 22.5C7 23.0304 7.21071 23.5391 7.58579 23.9142C7.96086 24.2893 8.46957 24.5 9 24.5C9.53043 24.5 10.0391 24.2893 10.4142 23.9142C10.7893 23.5391 11 23.0304 11 22.5C11 21.9696 10.7893 21.4609 10.4142 21.0858C10.0391 20.7107 9.53043 20.5 9 20.5Z" fill="#2C3034"/>
</svg>
