<svg width="27" height="28" viewBox="0 0 27 28" fill="none" xmlns="http://www.w3.org/2000/svg">
<path d="M8.75 8.5C8.02065 8.5 7.32118 8.78973 6.80546 9.30546C6.28973 9.82118 6 10.5207 6 11.25V12.5H22V11.25C22 10.5207 21.7103 9.82118 21.1945 9.30546C20.6788 8.78973 19.9793 8.5 19.25 8.5H8.75ZM22 13.5H6V17.75C6 18.4793 6.28973 19.1788 6.80546 19.6945C7.32118 20.2103 8.02065 20.5 8.75 20.5H19.25C19.9793 20.5 20.6788 20.2103 21.1945 19.6945C21.7103 19.1788 22 18.4793 22 17.75V13.5ZM17.5 17.5H19.5C19.6326 17.5 19.7598 17.5527 19.8536 17.6464C19.9473 17.7402 20 17.8674 20 18C20 18.1326 19.9473 18.2598 19.8536 18.3536C19.7598 18.4473 19.6326 18.5 19.5 18.5H17.5C17.3674 18.5 17.2402 18.4473 17.1464 18.3536C17.0527 18.2598 17 18.1326 17 18C17 17.8674 17.0527 17.7402 17.1464 17.6464C17.2402 17.5527 17.3674 17.5 17.5 17.5Z" fill="#2C3034"/>
</svg>
