<svg width="24" height="24" viewBox="0 0 24 24" fill="none" xmlns="http://www.w3.org/2000/svg">
<path d="M11.564 10.3803L5.16004 7.66234C4.88804 7.55634 4.7287 7.363 4.68204 7.08234C4.63537 6.80167 4.71237 6.56134 4.91304 6.36134L5.15904 6.09534C5.25437 6.00067 5.3627 5.936 5.48404 5.90134C5.60537 5.86667 5.7337 5.85967 5.86904 5.88034L14.581 7.38434L17.719 4.23934C17.9997 3.95934 18.339 3.81934 18.737 3.81934C19.135 3.81934 19.4747 3.95934 19.756 4.23934C20.0367 4.52 20.177 4.85967 20.177 5.25834C20.177 5.657 20.0367 5.99634 19.756 6.27634L16.617 9.42034L18.116 18.1263C18.136 18.2623 18.1297 18.392 18.097 18.5153C18.0644 18.638 18.0007 18.747 17.906 18.8423L17.641 19.0823C17.4397 19.2837 17.198 19.362 16.916 19.3173C16.6334 19.272 16.439 19.1137 16.333 18.8423L13.619 12.4183L10.55 15.4823L11.08 18.6013C11.1014 18.704 11.0997 18.8023 11.075 18.8963C11.051 18.991 10.9997 19.0773 10.921 19.1553L10.65 19.4073C10.4934 19.564 10.3147 19.6237 10.114 19.5863C9.91404 19.549 9.76237 19.438 9.65904 19.2533L7.95004 16.0503L4.74804 14.3403C4.56337 14.2383 4.45237 14.087 4.41504 13.8863C4.3777 13.6857 4.4377 13.507 4.59504 13.3503L4.84604 13.0793C4.92404 13.0007 5.01037 12.946 5.10504 12.9153C5.19904 12.8847 5.29737 12.8797 5.40004 12.9003L8.51304 13.4443L11.564 10.3803Z" fill="white"/>
</svg>
