<svg width="21" height="21" viewBox="0 0 21 21" fill="none" xmlns="http://www.w3.org/2000/svg">
<path d="M10.9771 1.66797C15.5899 1.66797 19.3291 5.40718 19.3291 10.02C19.3291 14.6329 15.5899 18.3721 10.9771 18.3721C6.36421 18.3721 2.625 14.6329 2.625 10.02C2.625 5.40718 6.36421 1.66797 10.9771 1.66797ZM10.9771 13.3608C10.7555 13.3608 10.5431 13.4488 10.3865 13.6055C10.2298 13.7621 10.1418 13.9745 10.1418 14.196C10.1418 14.4176 10.2298 14.63 10.3865 14.7866C10.5431 14.9433 10.7555 15.0312 10.9771 15.0312C11.1986 15.0312 11.411 14.9433 11.5676 14.7866C11.7243 14.63 11.8123 14.4176 11.8123 14.196C11.8123 13.9745 11.7243 13.7621 11.5676 13.6055C11.411 13.4488 11.1986 13.3608 10.9771 13.3608ZM10.9771 5.42639C10.1741 5.42639 9.40399 5.74537 8.8362 6.31316C8.26841 6.88095 7.94943 7.65104 7.94943 8.45401C7.94943 8.67552 8.03743 8.88796 8.19406 9.04459C8.35069 9.20122 8.56313 9.28922 8.78464 9.28922C9.00615 9.28922 9.21859 9.20122 9.37522 9.04459C9.53185 8.88796 9.61984 8.67552 9.61984 8.45401C9.62012 8.20765 9.68744 7.96602 9.8146 7.75502C9.94175 7.54401 10.1239 7.3716 10.3416 7.25626C10.5593 7.14092 10.8043 7.08701 11.0503 7.1003C11.2963 7.1136 11.534 7.1936 11.738 7.33172C11.942 7.46985 12.1046 7.6609 12.2082 7.88437C12.3119 8.10785 12.3528 8.35534 12.3265 8.60029C12.3002 8.84524 12.2078 9.07841 12.0591 9.27482C11.9104 9.47123 11.711 9.62345 11.4823 9.71517C10.9178 9.94067 10.1418 10.5186 10.1418 11.4816V11.6904C10.1418 11.9119 10.2298 12.1244 10.3865 12.281C10.5431 12.4376 10.7555 12.5256 10.9771 12.5256C11.1986 12.5256 11.411 12.4376 11.5676 12.281C11.7243 12.1244 11.8123 11.9119 11.8123 11.6904C11.8123 11.4866 11.854 11.3847 12.0302 11.2979L12.1029 11.2645C12.755 11.0021 13.2956 10.5211 13.6319 9.90386C13.9683 9.28661 14.0794 8.57159 13.9463 7.88138C13.8132 7.19117 13.4441 6.56875 12.9024 6.12084C12.3607 5.67293 11.68 5.42741 10.9771 5.42639Z" fill="#2C3034"/>
</svg>
