<svg width="65" height="59" viewBox="0 0 65 59" fill="none" xmlns="http://www.w3.org/2000/svg">
<path d="M58.2512 58.25C59.9585 58.25 61.5959 57.5718 62.8032 56.3645C64.0104 55.1572 64.6887 53.5198 64.6887 51.8125V36.0921C64.6887 34.3848 64.0104 32.7474 62.8032 31.5401C61.5959 30.3329 59.9585 29.6546 58.2512 29.6546H49.3159C49.3159 27.3929 49.449 25.1312 49.715 22.8695C50.1142 20.4748 50.7794 18.3461 51.7107 16.4835C52.642 14.6209 53.8415 13.1553 55.3092 12.0867C56.7684 10.8893 58.631 10.2906 60.897 10.2906V0.3125C57.1718 0.3125 53.9101 1.11075 51.112 2.70725C48.3332 4.28363 45.9457 6.46646 44.1273 9.09325C42.2965 11.9846 40.9485 15.1547 40.136 18.4791C39.3145 22.1468 38.9128 25.8961 38.9387 29.6546V51.8125C38.9387 53.5198 39.6169 55.1572 40.8242 56.3645C42.0314 57.5718 43.6688 58.25 45.3762 58.25H58.2512ZM19.6262 58.25C21.3335 58.25 22.9709 57.5718 24.1782 56.3645C25.3854 55.1572 26.0637 53.5198 26.0637 51.8125V36.0921C26.0637 34.3848 25.3854 32.7474 24.1782 31.5401C22.9709 30.3329 21.3335 29.6546 19.6262 29.6546H10.6909C10.6909 27.3929 10.824 25.1312 11.09 22.8695C11.4935 20.4748 12.1587 18.3461 13.0857 16.4835C14.017 14.6209 15.2165 13.1553 16.6842 12.0867C18.1434 10.8893 20.006 10.2906 22.272 10.2906V0.3125C18.5468 0.3125 15.2852 1.11075 12.487 2.70725C9.70819 4.28363 7.32072 6.46646 5.5023 9.09325C3.67154 11.9846 2.32351 15.1547 1.51105 18.4791C0.689518 22.1468 0.287811 25.8961 0.313674 29.6546V51.8125C0.313674 53.5198 0.991908 55.1572 2.19917 56.3645C3.40644 57.5718 5.04384 58.25 6.75117 58.25H19.6262Z" fill="#1C5291"/>
</svg>
