<svg width="27" height="28" viewBox="0 0 27 28" fill="none" xmlns="http://www.w3.org/2000/svg">
<path d="M18 19.5V21.5H4V19.5C4 19.5 4 15.5 11 15.5C18 15.5 18 19.5 18 19.5ZM14.5 10C14.5 9.3078 14.2947 8.63111 13.9101 8.05554C13.5256 7.47997 12.9789 7.03137 12.3394 6.76646C11.6999 6.50155 10.9961 6.43224 10.3172 6.56729C9.63825 6.70234 9.01461 7.03568 8.52513 7.52516C8.03564 8.01465 7.7023 8.63829 7.56725 9.31722C7.4322 9.99615 7.50152 10.6999 7.76642 11.3394C8.03133 11.979 8.47993 12.5256 9.0555 12.9102C9.63108 13.2948 10.3078 13.5 11 13.5C11.9283 13.5 12.8185 13.1313 13.4749 12.4749C14.1313 11.8185 14.5 10.9283 14.5 10ZM17.94 15.5C18.5547 15.9758 19.0578 16.5805 19.4137 17.2715C19.7696 17.9626 19.9697 18.7233 20 19.5V21.5H24V19.5C24 19.5 24 15.87 17.94 15.5ZM17 6.50004C16.3118 6.49684 15.6388 6.70257 15.07 7.09004C15.6774 7.93877 16.0041 8.95632 16.0041 10C16.0041 11.0438 15.6774 12.0613 15.07 12.91C15.6388 13.2975 16.3118 13.5032 17 13.5C17.9283 13.5 18.8185 13.1313 19.4749 12.4749C20.1313 11.8185 20.5 10.9283 20.5 10C20.5 9.07178 20.1313 8.18154 19.4749 7.52516C18.8185 6.86879 17.9283 6.50004 17 6.50004Z" fill="#2C3034"/>
</svg>
