<svg width="68" height="12" viewBox="0 0 68 12" fill="none" xmlns="http://www.w3.org/2000/svg">
<path d="M5.93426 9.49662L3.05755 11.2296C2.93047 11.3105 2.79761 11.3451 2.65897 11.3336C2.52033 11.322 2.39902 11.2758 2.29505 11.1949C2.19107 11.1141 2.1102 11.0131 2.05243 10.892C1.99467 10.7709 1.98311 10.6351 2.01777 10.4844L2.78028 7.20912L0.232824 5.00826C0.117293 4.90428 0.0452019 4.78574 0.0165503 4.65265C-0.0121013 4.51956 -0.00355206 4.38971 0.0421981 4.26308C0.0879483 4.13646 0.157267 4.03248 0.250153 3.95115C0.34304 3.86982 0.470124 3.81783 0.631405 3.79518L3.99335 3.50058L5.29307 0.415911C5.35083 0.277274 5.44049 0.173296 5.56202 0.103978C5.68356 0.0346591 5.80764 0 5.93426 0C6.06089 0 6.18497 0.0346591 6.3065 0.103978C6.42804 0.173296 6.51769 0.277274 6.57546 0.415911L7.87518 3.50058L11.2371 3.79518C11.3989 3.81829 11.526 3.87028 11.6184 3.95115C11.7108 4.03202 11.7801 4.136 11.8263 4.26308C11.8725 4.39017 11.8813 4.52025 11.8527 4.65335C11.824 4.78644 11.7517 4.90474 11.6357 5.00826L9.08825 7.20912L9.85075 10.4844C9.88541 10.6346 9.87386 10.7705 9.8161 10.892C9.75833 11.0135 9.67746 11.1145 9.57348 11.1949C9.4695 11.2753 9.3482 11.3215 9.20956 11.3336C9.07092 11.3456 8.93806 11.3109 8.81098 11.2296L5.93426 9.49662Z" fill="#FFC73E"/>
<path d="M19.8034 9.49662L16.9267 11.2296C16.7996 11.3105 16.6667 11.3451 16.5281 11.3336C16.3895 11.322 16.2682 11.2758 16.1642 11.1949C16.0602 11.1141 15.9793 11.0131 15.9216 10.892C15.8638 10.7709 15.8523 10.6351 15.8869 10.4844L16.6494 7.20912L14.102 5.00826C13.9864 4.90428 13.9143 4.78574 13.8857 4.65265C13.857 4.51956 13.8656 4.38971 13.9113 4.26308C13.9571 4.13646 14.0264 4.03248 14.1193 3.95115C14.2122 3.86982 14.3393 3.81783 14.5005 3.79518L17.8625 3.50058L19.1622 0.415911C19.22 0.277274 19.3096 0.173296 19.4312 0.103978C19.5527 0.0346591 19.6768 0 19.8034 0C19.93 0 20.0541 0.0346591 20.1756 0.103978C20.2972 0.173296 20.3868 0.277274 20.4446 0.415911L21.7443 3.50058L25.1063 3.79518C25.268 3.81829 25.3951 3.87028 25.4875 3.95115C25.5799 4.03202 25.6493 4.136 25.6955 4.26308C25.7417 4.39017 25.7505 4.52025 25.7218 4.65335C25.6932 4.78644 25.6208 4.90474 25.5048 5.00826L22.9574 7.20912L23.7199 10.4844C23.7546 10.6346 23.743 10.7705 23.6852 10.892C23.6275 11.0135 23.5466 11.1145 23.4426 11.1949C23.3386 11.2753 23.2173 11.3215 23.0787 11.3336C22.9401 11.3456 22.8072 11.3109 22.6801 11.2296L19.8034 9.49662Z" fill="#FFC73E"/>
<path d="M33.6725 9.49662L30.7958 11.2296C30.6687 11.3105 30.5359 11.3451 30.3972 11.3336C30.2586 11.322 30.1373 11.2758 30.0333 11.1949C29.9294 11.1141 29.8485 11.0131 29.7907 10.892C29.7329 10.7709 29.7214 10.6351 29.7561 10.4844L30.5186 7.20912L27.9711 5.00826C27.8556 4.90428 27.7835 4.78574 27.7548 4.65265C27.7262 4.51956 27.7347 4.38971 27.7805 4.26308C27.8262 4.13646 27.8955 4.03248 27.9884 3.95115C28.0813 3.86982 28.2084 3.81783 28.3697 3.79518L31.7316 3.50058L33.0314 0.415911C33.0891 0.277274 33.1788 0.173296 33.3003 0.103978C33.4218 0.0346591 33.5459 0 33.6725 0C33.7992 0 33.9232 0.0346591 34.0448 0.103978C34.1663 0.173296 34.256 0.277274 34.3137 0.415911L35.6135 3.50058L38.9754 3.79518C39.1371 3.81829 39.2642 3.87028 39.3567 3.95115C39.4491 4.03202 39.5184 4.136 39.5646 4.26308C39.6108 4.39017 39.6196 4.52025 39.591 4.65335C39.5623 4.78644 39.49 4.90474 39.374 5.00826L36.8265 7.20912L37.589 10.4844C37.6237 10.6346 37.6121 10.7705 37.5544 10.892C37.4966 11.0135 37.4157 11.1145 37.3118 11.1949C37.2078 11.2753 37.0865 11.3215 36.9478 11.3336C36.8092 11.3456 36.6763 11.3109 36.5493 11.2296L33.6725 9.49662Z" fill="#FFC73E"/>
<path d="M47.5417 9.49662L44.665 11.2296C44.5379 11.3105 44.405 11.3451 44.2664 11.3336C44.1278 11.322 44.0064 11.2758 43.9025 11.1949C43.7985 11.1141 43.7176 11.0131 43.6599 10.892C43.6021 10.7709 43.5905 10.6351 43.6252 10.4844L44.3877 7.20912L41.8402 5.00826C41.7247 4.90428 41.6526 4.78574 41.624 4.65265C41.5953 4.51956 41.6039 4.38971 41.6496 4.26308C41.6954 4.13646 41.7647 4.03248 41.8576 3.95115C41.9505 3.86982 42.0775 3.81783 42.2388 3.79518L45.6008 3.50058L46.9005 0.415911C46.9583 0.277274 47.0479 0.173296 47.1694 0.103978C47.291 0.0346591 47.4151 0 47.5417 0C47.6683 0 47.7924 0.0346591 47.9139 0.103978C48.0355 0.173296 48.1251 0.277274 48.1829 0.415911L49.4826 3.50058L52.8445 3.79518C53.0063 3.81829 53.1334 3.87028 53.2258 3.95115C53.3182 4.03202 53.3875 4.136 53.4338 4.26308C53.48 4.39017 53.4887 4.52025 53.4601 4.65335C53.4314 4.78644 53.3591 4.90474 53.2431 5.00826L50.6957 7.20912L51.4582 10.4844C51.4928 10.6346 51.4813 10.7705 51.4235 10.892C51.3658 11.0135 51.2849 11.1145 51.1809 11.1949C51.0769 11.2753 50.9556 11.3215 50.817 11.3336C50.6783 11.3456 50.5455 11.3109 50.4184 11.2296L47.5417 9.49662Z" fill="#FFC73E"/>
<path d="M61.4108 9.49662L58.5341 11.2296C58.407 11.3105 58.2742 11.3451 58.1355 11.3336C57.9969 11.322 57.8756 11.2758 57.7716 11.1949C57.6676 11.1141 57.5868 11.0131 57.529 10.892C57.4712 10.7709 57.4597 10.6351 57.4943 10.4844L58.2568 7.20912L55.7094 5.00826C55.5939 4.90428 55.5218 4.78574 55.4931 4.65265C55.4645 4.51956 55.473 4.38971 55.5188 4.26308C55.5645 4.13646 55.6338 4.03248 55.7267 3.95115C55.8196 3.86982 55.9467 3.81783 56.108 3.79518L59.4699 3.50058L60.7696 0.415911C60.8274 0.277274 60.917 0.173296 61.0386 0.103978C61.1601 0.0346591 61.2842 0 61.4108 0C61.5374 0 61.6615 0.0346591 61.7831 0.103978C61.9046 0.173296 61.9943 0.277274 62.052 0.415911L63.3517 3.50058L66.7137 3.79518C66.8754 3.81829 67.0025 3.87028 67.0949 3.95115C67.1874 4.03202 67.2567 4.136 67.3029 4.26308C67.3491 4.39017 67.3579 4.52025 67.3292 4.65335C67.3006 4.78644 67.2283 4.90474 67.1123 5.00826L64.5648 7.20912L65.3273 10.4844C65.362 10.6346 65.3504 10.7705 65.2927 10.892C65.2349 11.0135 65.154 11.1145 65.05 11.1949C64.9461 11.2753 64.8248 11.3215 64.6861 11.3336C64.5475 11.3456 64.4146 11.3109 64.2875 11.2296L61.4108 9.49662Z" fill="#FFC73E"/>
</svg>
