<svg width="30" height="36" viewBox="0 0 30 36" fill="none" xmlns="http://www.w3.org/2000/svg">
<g clip-path="url(#clip0_3196_13215)">
<path fill-rule="evenodd" clip-rule="evenodd" d="M26 18C26 14.5522 24.6304 11.2456 22.1924 8.80761C19.7544 6.36964 16.4478 5 13 5C9.55219 5 6.24558 6.36964 3.80761 8.80761C1.36964 11.2456 0 14.5522 0 18C0 21.4478 1.36964 24.7544 3.80761 27.1924C6.24558 29.6304 9.55219 31 13 31C16.4478 31 19.7544 29.6304 22.1924 27.1924C24.6304 24.7544 26 21.4478 26 18ZM19.3886 14.1966C19.3886 15.2459 18.5399 16.0964 17.4906 16.0983H17.4869C16.9925 16.0836 16.5233 15.877 16.1785 15.5224C15.8338 15.1678 15.6406 14.6929 15.6399 14.1983C15.6392 13.7038 15.831 13.2283 16.1747 12.8727C16.5184 12.5171 16.987 12.3092 17.4813 12.293H17.4869C18.5361 12.293 19.3886 13.1454 19.3886 14.1966ZM10.4167 14.1966C10.4167 15.2459 9.568 16.0964 8.51871 16.0983H8.51314C8.0188 16.0833 7.54968 15.8766 7.20513 15.5218C6.86057 15.167 6.66762 14.692 6.66714 14.1974C6.66665 13.7029 6.85867 13.2275 7.20254 12.8721C7.5464 12.5166 8.01511 12.3089 8.50943 12.293H8.51314C9.56429 12.293 10.4167 13.1454 10.4167 14.1966ZM7.77957 19.4114C7.7449 19.259 7.67981 19.1152 7.5882 18.9886C7.49659 18.862 7.38036 18.7551 7.24646 18.6745C7.11257 18.5939 6.96377 18.5412 6.809 18.5195C6.65423 18.4978 6.49666 18.5075 6.34576 18.5482C6.19486 18.5889 6.05372 18.6596 5.93081 18.7561C5.8079 18.8527 5.70576 18.973 5.6305 19.11C5.55524 19.247 5.50842 19.3977 5.49285 19.5533C5.47727 19.7088 5.49326 19.8658 5.53986 20.015C5.98293 21.6555 6.95414 23.1044 8.3033 24.1375C9.65247 25.1706 11.3044 25.7304 13.0037 25.7304C14.703 25.7304 16.355 25.1706 17.7041 24.1375C19.0533 23.1044 20.0245 21.6555 20.4676 20.015C20.5079 19.8676 20.5187 19.7137 20.4994 19.5621C20.4801 19.4105 20.4311 19.2642 20.3551 19.1316C20.2791 18.999 20.1777 18.8827 20.0567 18.7894C19.9356 18.6961 19.7974 18.6276 19.6498 18.5878C19.5022 18.5481 19.3483 18.5379 19.1967 18.5578C19.0452 18.5777 18.8991 18.6274 18.7668 18.7039C18.6346 18.7804 18.5187 18.8823 18.4259 19.0037C18.3331 19.1251 18.2651 19.2637 18.226 19.4114C17.9157 20.559 17.236 21.5724 16.2921 22.295C15.3481 23.0175 14.1925 23.4091 13.0037 23.4091C11.8149 23.4091 10.6593 23.0175 9.71534 22.295C8.7714 21.5724 8.08989 20.559 7.77957 19.4114Z" fill="#1C5291"/>
</g>
<defs>
<clipPath id="clip0_3196_13215">
<rect width="26" height="26" fill="white" transform="translate(0 5)"/>
</clipPath>
</defs>
</svg>
