<svg width="25" height="25" viewBox="0 0 25 25" fill="none" xmlns="http://www.w3.org/2000/svg">
<path d="M7.66699 15.5H9.66699C9.66699 16.58 11.037 17.5 12.667 17.5C14.297 17.5 15.667 16.58 15.667 15.5C15.667 14.4 14.627 14 12.427 13.47C10.307 12.94 7.66699 12.28 7.66699 9.5C7.66699 7.71 9.13699 6.19 11.167 5.68V3.5H14.167V5.68C16.197 6.19 17.667 7.71 17.667 9.5H15.667C15.667 8.42 14.297 7.5 12.667 7.5C11.037 7.5 9.66699 8.42 9.66699 9.5C9.66699 10.6 10.707 11 12.907 11.53C15.027 12.06 17.667 12.72 17.667 15.5C17.667 17.29 16.197 18.81 14.167 19.32V21.5H11.167V19.32C9.13699 18.81 7.66699 17.29 7.66699 15.5Z" fill="black"/>
</svg>
