<svg width="24" height="25" viewBox="0 0 24 25" fill="none" xmlns="http://www.w3.org/2000/svg">
<path d="M11 6.5H13V4.5H11V6.5ZM12 12.5C10.7333 12.5 9.525 12.2373 8.375 11.712C7.225 11.1867 6.1 10.5993 5 9.95V8.5C5 7.95 5.196 7.47933 5.588 7.088C5.98 6.69667 6.45067 6.50067 7 6.5H9V3.5C9 3.21667 9.096 2.97933 9.288 2.788C9.48 2.59667 9.71733 2.50067 10 2.5H14C14.2833 2.5 14.521 2.596 14.713 2.788C14.905 2.98 15.0007 3.21733 15 3.5V6.5H17C17.55 6.5 18.021 6.696 18.413 7.088C18.805 7.48 19.0007 7.95067 19 8.5V9.95C17.9 10.6 16.775 11.1877 15.625 11.713C14.475 12.2383 13.2667 12.5007 12 12.5ZM7 22.5V21.5C6.45 21.5 5.97933 21.3043 5.588 20.913C5.19667 20.5217 5.00067 20.0507 5 19.5V12.2C5.93333 12.7667 6.896 13.25 7.888 13.65C8.88 14.05 9.91733 14.3167 11 14.45V15.5H13V14.45C14.0833 14.3167 15.121 14.05 16.113 13.65C17.105 13.25 18.0673 12.7667 19 12.2V19.5C19 20.05 18.8043 20.521 18.413 20.913C18.0217 21.305 17.5507 21.5007 17 21.5V22.5H15V21.5H9V22.5H7Z" fill="#2C3034"/>
</svg>
