<svg width="50" height="50" viewBox="0 0 50 50" fill="none" xmlns="http://www.w3.org/2000/svg">
<path d="M33.6761 16.6665C37.815 16.6665 41.1761 19.9721 41.1761 24.1387C41.1761 28.2498 37.815 31.5971 33.6761 31.5971C31.6622 31.5971 29.7872 30.8193 28.3706 29.4165L24.5094 25.9998L20.5789 29.4859C19.2317 30.8332 17.3428 31.6109 15.3428 31.6109C11.2039 31.6109 7.84277 28.2498 7.84277 24.1387C7.84277 20.0276 11.2039 16.6665 15.3428 16.6665C17.3428 16.6665 19.2317 17.4443 20.6483 18.8609L24.5094 22.2776L28.44 18.7915C29.7872 17.4443 31.6761 16.6665 33.6761 16.6665ZM18.6761 27.4582L22.4261 24.1387L18.7317 20.8748C17.7872 19.9304 16.6067 19.4443 15.3428 19.4443C12.7456 19.4443 10.6206 21.5415 10.6206 24.1387C10.6206 26.7359 12.7456 28.8332 15.3428 28.8332C16.6067 28.8332 17.7872 28.3471 18.6761 27.4582ZM30.3428 20.8193L26.5928 24.1387L30.2872 27.4026C31.2317 28.3471 32.4261 28.8332 33.6761 28.8332C36.2733 28.8332 38.3983 26.7359 38.3983 24.1387C38.3983 21.5415 36.2733 19.4443 33.6761 19.4443C32.4122 19.4443 31.2317 19.9304 30.3428 20.8193Z" fill="black"/>
</svg>
