<svg width="146" height="353" viewBox="0 0 146 353" fill="none" xmlns="http://www.w3.org/2000/svg">
<g opacity="0.2">
<circle cx="4" cy="4" r="4" fill="#1C5291"/>
<circle cx="4" cy="27" r="4" fill="#1C5291"/>
<circle cx="4" cy="50" r="4" fill="#1C5291"/>
<circle cx="4" cy="73" r="4" fill="#1C5291"/>
<circle cx="4" cy="96" r="4" fill="#1C5291"/>
<circle cx="4" cy="119" r="4" fill="#1C5291"/>
<circle cx="4" cy="142" r="4" fill="#1C5291"/>
<circle cx="4" cy="165" r="4" fill="#1C5291"/>
<circle cx="4" cy="188" r="4" fill="#1C5291"/>
<circle cx="4" cy="211" r="4" fill="#1C5291"/>
<circle cx="4" cy="234" r="4" fill="#1C5291"/>
<circle cx="4" cy="257" r="4" fill="#1C5291"/>
<circle cx="4" cy="280" r="4" fill="#1C5291"/>
<circle cx="4" cy="303" r="4" fill="#1C5291"/>
<circle cx="4" cy="326" r="4" fill="#1C5291"/>
<circle cx="4" cy="349" r="4" fill="#1C5291"/>
<circle cx="27" cy="4" r="4" fill="#1C5291"/>
<circle cx="27" cy="27" r="4" fill="#1C5291"/>
<circle cx="27" cy="50" r="4" fill="#1C5291"/>
<circle cx="27" cy="73" r="4" fill="#1C5291"/>
<circle cx="27" cy="96" r="4" fill="#1C5291"/>
<circle cx="27" cy="119" r="4" fill="#1C5291"/>
<circle cx="27" cy="142" r="4" fill="#1C5291"/>
<circle cx="27" cy="165" r="4" fill="#1C5291"/>
<circle cx="27" cy="188" r="4" fill="#1C5291"/>
<circle cx="27" cy="211" r="4" fill="#1C5291"/>
<circle cx="27" cy="234" r="4" fill="#1C5291"/>
<circle cx="27" cy="257" r="4" fill="#1C5291"/>
<circle cx="27" cy="280" r="4" fill="#1C5291"/>
<circle cx="27" cy="303" r="4" fill="#1C5291"/>
<circle cx="27" cy="326" r="4" fill="#1C5291"/>
<circle cx="27" cy="349" r="4" fill="#1C5291"/>
<circle cx="50" cy="4" r="4" fill="#1C5291"/>
<circle cx="50" cy="27" r="4" fill="#1C5291"/>
<circle cx="50" cy="50" r="4" fill="#1C5291"/>
<circle cx="50" cy="73" r="4" fill="#1C5291"/>
<circle cx="50" cy="96" r="4" fill="#1C5291"/>
<circle cx="50" cy="119" r="4" fill="#1C5291"/>
<circle cx="50" cy="142" r="4" fill="#1C5291"/>
<circle cx="50" cy="165" r="4" fill="#1C5291"/>
<circle cx="50" cy="188" r="4" fill="#1C5291"/>
<circle cx="50" cy="211" r="4" fill="#1C5291"/>
<circle cx="50" cy="234" r="4" fill="#1C5291"/>
<circle cx="50" cy="257" r="4" fill="#1C5291"/>
<circle cx="50" cy="280" r="4" fill="#1C5291"/>
<circle cx="50" cy="303" r="4" fill="#1C5291"/>
<circle cx="50" cy="326" r="4" fill="#1C5291"/>
<circle cx="50" cy="349" r="4" fill="#1C5291"/>
<circle cx="73" cy="4" r="4" fill="#1C5291"/>
<circle cx="73" cy="27" r="4" fill="#1C5291"/>
<circle cx="73" cy="50" r="4" fill="#1C5291"/>
<circle cx="73" cy="73" r="4" fill="#1C5291"/>
<circle cx="73" cy="96" r="4" fill="#1C5291"/>
<circle cx="73" cy="119" r="4" fill="#1C5291"/>
<circle cx="73" cy="142" r="4" fill="#1C5291"/>
<circle cx="73" cy="165" r="4" fill="#1C5291"/>
<circle cx="73" cy="188" r="4" fill="#1C5291"/>
<circle cx="73" cy="211" r="4" fill="#1C5291"/>
<circle cx="73" cy="234" r="4" fill="#1C5291"/>
<circle cx="73" cy="257" r="4" fill="#1C5291"/>
<circle cx="73" cy="280" r="4" fill="#1C5291"/>
<circle cx="73" cy="303" r="4" fill="#1C5291"/>
<circle cx="73" cy="326" r="4" fill="#1C5291"/>
<circle cx="73" cy="349" r="4" fill="#1C5291"/>
<circle cx="96" cy="4" r="4" fill="#1C5291"/>
<circle cx="96" cy="27" r="4" fill="#1C5291"/>
<circle cx="96" cy="50" r="4" fill="#1C5291"/>
<circle cx="96" cy="73" r="4" fill="#1C5291"/>
<circle cx="96" cy="96" r="4" fill="#1C5291"/>
<circle cx="96" cy="119" r="4" fill="#1C5291"/>
<circle cx="96" cy="142" r="4" fill="#1C5291"/>
<circle cx="96" cy="165" r="4" fill="#1C5291"/>
<circle cx="96" cy="188" r="4" fill="#1C5291"/>
<circle cx="96" cy="211" r="4" fill="#1C5291"/>
<circle cx="96" cy="234" r="4" fill="#1C5291"/>
<circle cx="96" cy="257" r="4" fill="#1C5291"/>
<circle cx="96" cy="280" r="4" fill="#1C5291"/>
<circle cx="96" cy="303" r="4" fill="#1C5291"/>
<circle cx="96" cy="326" r="4" fill="#1C5291"/>
<circle cx="96" cy="349" r="4" fill="#1C5291"/>
<circle cx="119" cy="4" r="4" fill="#1C5291"/>
<circle cx="119" cy="27" r="4" fill="#1C5291"/>
<circle cx="119" cy="50" r="4" fill="#1C5291"/>
<circle cx="119" cy="73" r="4" fill="#1C5291"/>
<circle cx="119" cy="96" r="4" fill="#1C5291"/>
<circle cx="119" cy="119" r="4" fill="#1C5291"/>
<circle cx="119" cy="142" r="4" fill="#1C5291"/>
<circle cx="119" cy="165" r="4" fill="#1C5291"/>
<circle cx="119" cy="188" r="4" fill="#1C5291"/>
<circle cx="119" cy="211" r="4" fill="#1C5291"/>
<circle cx="119" cy="234" r="4" fill="#1C5291"/>
<circle cx="119" cy="257" r="4" fill="#1C5291"/>
<circle cx="119" cy="280" r="4" fill="#1C5291"/>
<circle cx="119" cy="303" r="4" fill="#1C5291"/>
<circle cx="119" cy="326" r="4" fill="#1C5291"/>
<circle cx="119" cy="349" r="4" fill="#1C5291"/>
<circle cx="142" cy="4" r="4" fill="#1C5291"/>
<circle cx="142" cy="27" r="4" fill="#1C5291"/>
<circle cx="142" cy="50" r="4" fill="#1C5291"/>
<circle cx="142" cy="73" r="4" fill="#1C5291"/>
<circle cx="142" cy="96" r="4" fill="#1C5291"/>
<circle cx="142" cy="119" r="4" fill="#1C5291"/>
<circle cx="142" cy="142" r="4" fill="#1C5291"/>
<circle cx="142" cy="165" r="4" fill="#1C5291"/>
<circle cx="142" cy="188" r="4" fill="#1C5291"/>
<circle cx="142" cy="211" r="4" fill="#1C5291"/>
<circle cx="142" cy="234" r="4" fill="#1C5291"/>
<circle cx="142" cy="257" r="4" fill="#1C5291"/>
<circle cx="142" cy="280" r="4" fill="#1C5291"/>
<circle cx="142" cy="303" r="4" fill="#1C5291"/>
<circle cx="142" cy="326" r="4" fill="#1C5291"/>
<circle cx="142" cy="349" r="4" fill="#1C5291"/>
</g>
</svg>
